<svg xmlns="http://www.w3.org/2000/svg" width="384" height="443">
  <polyline points="0,36.95041722813605,21.333333333333332,0,64.0,0,85.33333333333333,36.95041722813605,64.0,73.9008344562721,21.333333333333332,73.9008344562721,0,36.95041722813605" fill="#fff" fill-opacity="0" stroke="#fff" stroke-opacity="0.10" transform="translate(-42.666666666666664,-36.95041722813605)"/>
  <polyline points="0,36.95041722813605,21.333333333333332,0,64.0,0,85.33333333333333,36.95041722813605,64.0,73.9008344562721,21.333333333333332,73.9008344562721,0,36.95041722813605" fill="#fff" fill-opacity="0" stroke="#fff" stroke-opacity="0.10" transform="translate(341.3333333333333,-36.95041722813605)"/>
  <polyline points="0,36.95041722813605,21.333333333333332,0,64.0,0,85.33333333333333,36.95041722813605,64.0,73.9008344562721,21.333333333333332,73.9008344562721,0,36.95041722813605" fill="#fff" fill-opacity="0" stroke="#fff" stroke-opacity="0.10" transform="translate(-42.666666666666664,406.4545895094965)"/>
  <polyline points="0,36.95041722813605,21.333333333333332,0,64.0,0,85.33333333333333,36.95041722813605,64.0,73.9008344562721,21.333333333333332,73.9008344562721,0,36.95041722813605" fill="#fff" fill-opacity="0" stroke="#fff" stroke-opacity="0.10" transform="translate(341.3333333333333,406.4545895094965)"/>
  <polyline points="0,36.95041722813605,21.333333333333332,0,64.0,0,85.33333333333333,36.95041722813605,64.0,73.9008344562721,21.333333333333332,73.9008344562721,0,36.95041722813605" fill="#fff" fill-opacity="0" stroke="#fff" stroke-opacity="0.10" transform="translate(21.333333333333336,0.0)"/>
  <polyline points="0,36.95041722813605,21.333333333333332,0,64.0,0,85.33333333333333,36.95041722813605,64.0,73.9008344562721,21.333333333333332,73.9008344562721,0,36.95041722813605" fill="#fff" fill-opacity="0" stroke="#fff" stroke-opacity="0.10" transform="translate(21.333333333333336,443.40500673763256)"/>
  <polyline points="0,36.95041722813605,21.333333333333332,0,64.0,0,85.33333333333333,36.95041722813605,64.0,73.9008344562721,21.333333333333332,73.9008344562721,0,36.95041722813605" fill="#fff" fill-opacity="0" stroke="#fff" stroke-opacity="0.10" transform="translate(85.33333333333334,-36.95041722813605)"/>
  <polyline points="0,36.95041722813605,21.333333333333332,0,64.0,0,85.33333333333333,36.95041722813605,64.0,73.9008344562721,21.333333333333332,73.9008344562721,0,36.95041722813605" fill="#fff" fill-opacity="0" stroke="#fff" stroke-opacity="0.10" transform="translate(85.33333333333334,406.4545895094965)"/>
  <polyline points="0,36.95041722813605,21.333333333333332,0,64.0,0,85.33333333333333,36.95041722813605,64.0,73.9008344562721,21.333333333333332,73.9008344562721,0,36.95041722813605" fill="#fff" fill-opacity="0" stroke="#fff" stroke-opacity="0.10" transform="translate(149.33333333333334,0.0)"/>
  <polyline points="0,36.95041722813605,21.333333333333332,0,64.0,0,85.33333333333333,36.95041722813605,64.0,73.9008344562721,21.333333333333332,73.9008344562721,0,36.95041722813605" fill="#fff" fill-opacity="0" stroke="#fff" stroke-opacity="0.10" transform="translate(149.33333333333334,443.40500673763256)"/>
  <polyline points="0,36.95041722813605,21.333333333333332,0,64.0,0,85.33333333333333,36.95041722813605,64.0,73.9008344562721,21.333333333333332,73.9008344562721,0,36.95041722813605" fill="#fff" fill-opacity="0" stroke="#fff" stroke-opacity="0.10" transform="translate(213.33333333333334,-36.95041722813605)"/>
  <polyline points="0,36.95041722813605,21.333333333333332,0,64.0,0,85.33333333333333,36.95041722813605,64.0,73.9008344562721,21.333333333333332,73.9008344562721,0,36.95041722813605" fill="#fff" fill-opacity="0" stroke="#fff" stroke-opacity="0.10" transform="translate(213.33333333333334,406.4545895094965)"/>
  <polyline points="0,36.95041722813605,21.333333333333332,0,64.0,0,85.33333333333333,36.95041722813605,64.0,73.9008344562721,21.333333333333332,73.9008344562721,0,36.95041722813605" fill="#fff" fill-opacity="0" stroke="#fff" stroke-opacity="0.10" transform="translate(277.3333333333333,0.0)"/>
  <polyline points="0,36.95041722813605,21.333333333333332,0,64.0,0,85.33333333333333,36.95041722813605,64.0,73.9008344562721,21.333333333333332,73.9008344562721,0,36.95041722813605" fill="#fff" fill-opacity="0" stroke="#fff" stroke-opacity="0.10" transform="translate(277.3333333333333,443.40500673763256)"/>
  <polyline points="0,36.95041722813605,21.333333333333332,0,64.0,0,85.33333333333333,36.95041722813605,64.0,73.9008344562721,21.333333333333332,73.9008344562721,0,36.95041722813605" fill="#fff" fill-opacity="0" stroke="#fff" stroke-opacity="0.10" transform="translate(-42.666666666666664,36.95041722813605)"/>
  <polyline points="0,36.95041722813605,21.333333333333332,0,64.0,0,85.33333333333333,36.95041722813605,64.0,73.9008344562721,21.333333333333332,73.9008344562721,0,36.95041722813605" fill="#fff" fill-opacity="0" stroke="#fff" stroke-opacity="0.10" transform="translate(341.3333333333333,36.95041722813605)"/>
  <polyline points="0,36.95041722813605,21.333333333333332,0,64.0,0,85.33333333333333,36.95041722813605,64.0,73.9008344562721,21.333333333333332,73.9008344562721,0,36.95041722813605" fill="#fff" fill-opacity="0" stroke="#fff" stroke-opacity="0.10" transform="translate(21.333333333333336,73.9008344562721)"/>
  <polyline points="0,36.95041722813605,21.333333333333332,0,64.0,0,85.33333333333333,36.95041722813605,64.0,73.9008344562721,21.333333333333332,73.9008344562721,0,36.95041722813605" fill="#fff" fill-opacity="0" stroke="#fff" stroke-opacity="0.10" transform="translate(85.33333333333334,36.95041722813605)"/>
  <polyline points="0,36.95041722813605,21.333333333333332,0,64.0,0,85.33333333333333,36.95041722813605,64.0,73.9008344562721,21.333333333333332,73.9008344562721,0,36.95041722813605" fill="#fff" fill-opacity="0" stroke="#fff" stroke-opacity="0.10" transform="translate(149.33333333333334,73.9008344562721)"/>
  <polyline points="0,36.95041722813605,21.333333333333332,0,64.0,0,85.33333333333333,36.95041722813605,64.0,73.9008344562721,21.333333333333332,73.9008344562721,0,36.95041722813605" fill="#fff" fill-opacity="0" stroke="#fff" stroke-opacity="0.10" transform="translate(213.33333333333334,36.95041722813605)"/>
  <polyline points="0,36.95041722813605,21.333333333333332,0,64.0,0,85.33333333333333,36.95041722813605,64.0,73.9008344562721,21.333333333333332,73.9008344562721,0,36.95041722813605" fill="#fff" fill-opacity="0" stroke="#fff" stroke-opacity="0.10" transform="translate(277.3333333333333,73.9008344562721)"/>
  <polyline points="0,36.95041722813605,21.333333333333332,0,64.0,0,85.33333333333333,36.95041722813605,64.0,73.9008344562721,21.333333333333332,73.9008344562721,0,36.95041722813605" fill="#fff" fill-opacity="0" stroke="#fff" stroke-opacity="0.10" transform="translate(-42.666666666666664,110.85125168440814)"/>
  <polyline points="0,36.95041722813605,21.333333333333332,0,64.0,0,85.33333333333333,36.95041722813605,64.0,73.9008344562721,21.333333333333332,73.9008344562721,0,36.95041722813605" fill="#fff" fill-opacity="0" stroke="#fff" stroke-opacity="0.10" transform="translate(341.3333333333333,110.85125168440814)"/>
  <polyline points="0,36.95041722813605,21.333333333333332,0,64.0,0,85.33333333333333,36.95041722813605,64.0,73.9008344562721,21.333333333333332,73.9008344562721,0,36.95041722813605" fill="#fff" fill-opacity="0" stroke="#fff" stroke-opacity="0.10" transform="translate(21.333333333333336,147.8016689125442)"/>
  <polyline points="0,36.95041722813605,21.333333333333332,0,64.0,0,85.33333333333333,36.95041722813605,64.0,73.9008344562721,21.333333333333332,73.9008344562721,0,36.95041722813605" fill="#fff" fill-opacity="0" stroke="#fff" stroke-opacity="0.10" transform="translate(85.33333333333334,110.85125168440814)"/>
  <polyline points="0,36.95041722813605,21.333333333333332,0,64.0,0,85.33333333333333,36.95041722813605,64.0,73.9008344562721,21.333333333333332,73.9008344562721,0,36.95041722813605" fill="#fff" fill-opacity="0" stroke="#fff" stroke-opacity="0.10" transform="translate(149.33333333333334,147.8016689125442)"/>
  <polyline points="0,36.95041722813605,21.333333333333332,0,64.0,0,85.33333333333333,36.95041722813605,64.0,73.9008344562721,21.333333333333332,73.9008344562721,0,36.95041722813605" fill="#fff" fill-opacity="0" stroke="#fff" stroke-opacity="0.10" transform="translate(213.33333333333334,110.85125168440814)"/>
  <polyline points="0,36.95041722813605,21.333333333333332,0,64.0,0,85.33333333333333,36.95041722813605,64.0,73.9008344562721,21.333333333333332,73.9008344562721,0,36.95041722813605" fill="#fff" fill-opacity="0" stroke="#fff" stroke-opacity="0.10" transform="translate(277.3333333333333,147.8016689125442)"/>
  <polyline points="0,36.95041722813605,21.333333333333332,0,64.0,0,85.33333333333333,36.95041722813605,64.0,73.9008344562721,21.333333333333332,73.9008344562721,0,36.95041722813605" fill="#fff" fill-opacity="0" stroke="#fff" stroke-opacity="0.10" transform="translate(-42.666666666666664,184.75208614068023)"/>
  <polyline points="0,36.95041722813605,21.333333333333332,0,64.0,0,85.33333333333333,36.95041722813605,64.0,73.9008344562721,21.333333333333332,73.9008344562721,0,36.95041722813605" fill="#fff" fill-opacity="0" stroke="#fff" stroke-opacity="0.10" transform="translate(341.3333333333333,184.75208614068023)"/>
  <polyline points="0,36.95041722813605,21.333333333333332,0,64.0,0,85.33333333333333,36.95041722813605,64.0,73.9008344562721,21.333333333333332,73.9008344562721,0,36.95041722813605" fill="#fff" fill-opacity="0" stroke="#fff" stroke-opacity="0.10" transform="translate(21.333333333333336,221.70250336881625)"/>
  <polyline points="0,36.95041722813605,21.333333333333332,0,64.0,0,85.33333333333333,36.95041722813605,64.0,73.9008344562721,21.333333333333332,73.9008344562721,0,36.95041722813605" fill="#fff" fill-opacity="0" stroke="#fff" stroke-opacity="0.10" transform="translate(85.33333333333334,184.75208614068023)"/>
  <polyline points="0,36.95041722813605,21.333333333333332,0,64.0,0,85.33333333333333,36.95041722813605,64.0,73.9008344562721,21.333333333333332,73.9008344562721,0,36.95041722813605" fill="#fff" fill-opacity="0" stroke="#fff" stroke-opacity="0.10" transform="translate(149.33333333333334,221.70250336881625)"/>
  <polyline points="0,36.95041722813605,21.333333333333332,0,64.0,0,85.33333333333333,36.95041722813605,64.0,73.9008344562721,21.333333333333332,73.9008344562721,0,36.95041722813605" fill="#fff" fill-opacity="0" stroke="#fff" stroke-opacity="0.10" transform="translate(213.33333333333334,184.75208614068023)"/>
  <polyline points="0,36.95041722813605,21.333333333333332,0,64.0,0,85.33333333333333,36.95041722813605,64.0,73.9008344562721,21.333333333333332,73.9008344562721,0,36.95041722813605" fill="#fff" fill-opacity="0" stroke="#fff" stroke-opacity="0.10" transform="translate(277.3333333333333,221.70250336881625)"/>
  <polyline points="0,36.95041722813605,21.333333333333332,0,64.0,0,85.33333333333333,36.95041722813605,64.0,73.9008344562721,21.333333333333332,73.9008344562721,0,36.95041722813605" fill="#fff" fill-opacity="0" stroke="#fff" stroke-opacity="0.10" transform="translate(-42.666666666666664,258.6529205969523)"/>
  <polyline points="0,36.95041722813605,21.333333333333332,0,64.0,0,85.33333333333333,36.95041722813605,64.0,73.9008344562721,21.333333333333332,73.9008344562721,0,36.95041722813605" fill="#fff" fill-opacity="0" stroke="#fff" stroke-opacity="0.10" transform="translate(341.3333333333333,258.6529205969523)"/>
  <polyline points="0,36.95041722813605,21.333333333333332,0,64.0,0,85.33333333333333,36.95041722813605,64.0,73.9008344562721,21.333333333333332,73.9008344562721,0,36.95041722813605" fill="#fff" fill-opacity="0" stroke="#fff" stroke-opacity="0.10" transform="translate(21.333333333333336,295.6033378250884)"/>
  <polyline points="0,36.95041722813605,21.333333333333332,0,64.0,0,85.33333333333333,36.95041722813605,64.0,73.9008344562721,21.333333333333332,73.9008344562721,0,36.95041722813605" fill="#fff" fill-opacity="0" stroke="#fff" stroke-opacity="0.10" transform="translate(85.33333333333334,258.6529205969523)"/>
  <polyline points="0,36.95041722813605,21.333333333333332,0,64.0,0,85.33333333333333,36.95041722813605,64.0,73.9008344562721,21.333333333333332,73.9008344562721,0,36.95041722813605" fill="#fff" fill-opacity="0" stroke="#fff" stroke-opacity="0.10" transform="translate(149.33333333333334,295.6033378250884)"/>
  <polyline points="0,36.95041722813605,21.333333333333332,0,64.0,0,85.33333333333333,36.95041722813605,64.0,73.9008344562721,21.333333333333332,73.9008344562721,0,36.95041722813605" fill="#fff" fill-opacity="0" stroke="#fff" stroke-opacity="0.10" transform="translate(213.33333333333334,258.6529205969523)"/>
  <polyline points="0,36.95041722813605,21.333333333333332,0,64.0,0,85.33333333333333,36.95041722813605,64.0,73.9008344562721,21.333333333333332,73.9008344562721,0,36.95041722813605" fill="#fff" fill-opacity="0" stroke="#fff" stroke-opacity="0.10" transform="translate(277.3333333333333,295.6033378250884)"/>
  <polyline points="0,36.95041722813605,21.333333333333332,0,64.0,0,85.33333333333333,36.95041722813605,64.0,73.9008344562721,21.333333333333332,73.9008344562721,0,36.95041722813605" fill="#fff" fill-opacity="0" stroke="#fff" stroke-opacity="0.10" transform="translate(-42.666666666666664,332.55375505322445)"/>
  <polyline points="0,36.95041722813605,21.333333333333332,0,64.0,0,85.33333333333333,36.95041722813605,64.0,73.9008344562721,21.333333333333332,73.9008344562721,0,36.95041722813605" fill="#fff" fill-opacity="0" stroke="#fff" stroke-opacity="0.10" transform="translate(341.3333333333333,332.55375505322445)"/>
  <polyline points="0,36.95041722813605,21.333333333333332,0,64.0,0,85.33333333333333,36.95041722813605,64.0,73.9008344562721,21.333333333333332,73.9008344562721,0,36.95041722813605" fill="#fff" fill-opacity="0" stroke="#fff" stroke-opacity="0.10" transform="translate(21.333333333333336,369.5041722813604)"/>
  <polyline points="0,36.95041722813605,21.333333333333332,0,64.0,0,85.33333333333333,36.95041722813605,64.0,73.9008344562721,21.333333333333332,73.9008344562721,0,36.95041722813605" fill="#fff" fill-opacity="0" stroke="#fff" stroke-opacity="0.10" transform="translate(85.33333333333334,332.55375505322445)"/>
  <polyline points="0,36.95041722813605,21.333333333333332,0,64.0,0,85.33333333333333,36.95041722813605,64.0,73.9008344562721,21.333333333333332,73.9008344562721,0,36.95041722813605" fill="#fff" fill-opacity="0" stroke="#fff" stroke-opacity="0.10" transform="translate(149.33333333333334,369.5041722813604)"/>
  <polyline points="0,36.95041722813605,21.333333333333332,0,64.0,0,85.33333333333333,36.95041722813605,64.0,73.9008344562721,21.333333333333332,73.9008344562721,0,36.95041722813605" fill="#fff" fill-opacity="0" stroke="#fff" stroke-opacity="0.10" transform="translate(213.33333333333334,332.55375505322445)"/>
  <polyline points="0,36.95041722813605,21.333333333333332,0,64.0,0,85.33333333333333,36.95041722813605,64.0,73.9008344562721,21.333333333333332,73.9008344562721,0,36.95041722813605" fill="#fff" fill-opacity="0" stroke="#fff" stroke-opacity="0.10" transform="translate(277.3333333333333,369.5041722813604)"/>
</svg>
